<?xml version="1.0" encoding="utf-8"?>
<svg width="207px" height="131px" viewBox="0 0 207 131" version="1.1" xmlns="http://www.w3.org/2000/svg">
  <title>CARD_inactive_visa</title>
  <desc>Created with Sketch.</desc>
  <defs>
    <polygon id="path-1" points="0 22.76125 67.0764182 22.76125 67.0764182 0.1431175 0 0.1431175"/>
  </defs>
  <g id="CARD_inactive_visa" stroke="none" stroke-width="1" fill="none" fill-rule="evenodd">
    <g transform="translate(0.000000, -0.000000)">
      <rect id="Rectangle-3" fill-opacity="0.2" fill="#000000" x="0" y="0" width="206.920507" height="131" rx="10.1481481"/>
      <g id="logo" transform="translate(12.100614, 12.129630)">
        <g id="Group-13" transform="translate(0.000000, 0.020633)">
          <g id="Clip-9"/>
        </g>
      </g>
      <rect id="Rectangle-5" fill-opacity="0.0757472826" fill="#000000" x="12.1006144" y="57.0092593" width="182.719278" height="19.4074074" rx="2.53703704"/>
      <g id="Visa-logo" transform="translate(117.000000, 95.000000)" fill="#004F8B">
        <polyline id="Fill-2" points="27.495 23.6302222 31.4379886 0.428888889 37.7440227 0.428888889 33.798375 23.6302222 27.495 23.6302222"/>
        <path d="M56.6696591,1 C55.4203295,0.529777778 53.4627955,0.0257777778 51.0177614,0.0257777778 C44.7870682,0.0257777778 40.3973523,3.17244444 40.360125,7.68222222 C40.3251136,11.016 43.4938636,12.876 45.8857159,13.9857778 C48.3400568,15.1226667 49.1657045,15.848 49.1537386,16.8635556 C49.1382273,18.4186667 47.1935455,19.1293333 45.3809318,19.1293333 C42.8570114,19.1293333 41.5163864,18.7777778 39.4453977,17.9115556 L38.6326023,17.5426667 L37.7475682,22.7364444 C39.2207045,23.384 41.9445,23.9453333 44.772,23.9742222 C51.4011136,23.9742222 55.7039659,20.8635556 55.7531591,16.0475556 C55.7770909,13.4084444 54.0965455,11.3995556 50.4589091,9.744 C48.2545227,8.67066667 46.9045909,7.95422222 46.9187727,6.86755556 C46.9187727,5.90311111 48.0612955,4.872 50.5302614,4.872 C52.5923864,4.84 54.0859091,5.29066667 55.2497045,5.76088889 L55.8147614,6.02844444 L56.6696591,1" id="Fill-3"/>
        <path d="M72.8400341,0.451111111 L67.96725,0.451111111 C66.4577727,0.451111111 65.3281023,0.864 64.6651023,2.37511111 L55.2997841,23.6377778 L61.9218068,23.6377778 C61.9218068,23.6377778 63.0045,20.7786667 63.2495795,20.1511111 C63.9732955,20.1511111 70.4056364,20.1608889 71.3252386,20.1608889 C71.5140341,20.9728889 72.0928295,23.6377778 72.0928295,23.6377778 L77.9441591,23.6377778 L72.8400341,0.451111111 M65.0644091,15.4053333 C65.5855909,14.0684444 67.5768068,8.91955556 67.5768068,8.91955556 C67.5391364,8.98133333 68.0944432,7.57644444 68.4126477,6.70533333 L68.8389886,8.70577778 C68.8389886,8.70577778 70.0466591,14.244 70.2988295,15.4053333 L65.0644091,15.4053333" id="Fill-4"/>
        <path d="M22.2060682,0.445777778 L16.0321023,16.2675556 L15.3744205,13.052 C14.22525,9.34533333 10.6443409,5.32977778 6.64063636,3.31955556 L12.2858864,23.6102222 L18.9579886,23.6026667 L28.8857045,0.445777778 L22.2060682,0.445777778" id="Fill-5"/>
        <path d="M10.3048636,0.431555556 L0.1365,0.431555556 L0.0558409091,0.914222222 C7.96707955,2.83466667 13.2015,7.47555556 15.3744205,13.052 L13.1633864,2.39022222 C12.7813636,0.920888889 11.6742955,0.482666667 10.3048636,0.431555556" id="Fill-6"/>
      </g>
      <rect id="Rectangle-5-Copy" fill-opacity="0.0757472826" fill="#000000" x="12.1006144" y="106.740741" width="73.8137481" height="12.1296296" rx="2.53703704"/>
      <rect id="Rectangle-5-Copy-3" fill-opacity="0.0757472826" fill="#000000" x="12.1006144" y="84.9074074" width="73.8137481" height="12.1296296" rx="2.53703704"/>
    </g>
  </g>
</svg>