<?xml version="1.0" encoding="utf-8"?>
<svg width="207" height="131" viewBox="0 0 207 131" xmlns="http://www.w3.org/2000/svg">
  <defs>
    <path id="a" d="M0 22.761h67.076V.143H0z"/>
  </defs>
  <g fill="none" fill-rule="evenodd">
    <rect width="206.921" height="131" fill="#FEDF3B" rx="10.148"/>
    <g transform="translate(12.1 12.15)"/>
    <rect width="182.719" height="19.407" x="12.101" y="57.009" fill="#000" fill-opacity=".076" rx="2.537"/>
    <rect width="73.814" height="12.13" x="12.101" y="106.741" fill="#000" fill-opacity=".076" rx="2.537"/>
    <rect width="73.814" height="12.13" x="12.101" y="84.907" fill="#000" fill-opacity=".076" rx="2.537"/>
    <g fill="#004F8B">
      <path d="M144.495 118.63l3.943-23.201h6.306l-3.946 23.201h-6.303M173.67 96c-1.25-.47-3.207-.974-5.652-.974-6.23 0-10.62 3.146-10.658 7.656-.035 3.334 3.134 5.194 5.526 6.304 2.454 1.137 3.28 1.862 3.268 2.878-.016 1.555-1.96 2.265-3.773 2.265-2.524 0-3.865-.351-5.936-1.217l-.812-.37-.885 5.194c1.473.648 4.196 1.21 7.024 1.238 6.63 0 10.932-3.11 10.981-7.926.024-2.64-1.656-4.648-5.294-6.304-2.204-1.073-3.554-1.79-3.54-2.876 0-.965 1.142-1.996 3.611-1.996a11.602 11.602 0 0 1 4.72.889l.565.267.855-5.028M189.84 95.451h-4.873c-1.51 0-2.639.413-3.302 1.924l-9.365 21.263h6.622s1.083-2.86 1.328-3.487c.723 0 7.156.01 8.075.01.189.812.768 3.477.768 3.477h5.851L189.84 95.45m-7.776 14.954a5098.39 5098.39 0 0 0 2.513-6.485c-.038.061.517-1.344.836-2.215l.426 2 1.46 6.7h-5.235M139.206 95.446l-6.174 15.822-.658-3.216c-1.149-3.707-4.73-7.722-8.733-9.732l5.645 20.29 6.672-.007 9.928-23.157h-6.68"/>
      <path d="M127.305 95.432h-10.169l-.08.482c7.911 1.92 13.146 6.562 15.318 12.138l-2.21-10.662c-.383-1.47-1.49-1.907-2.86-1.958"/>
    </g>
  </g>
</svg>